<?xml version="1.0" encoding="UTF-8" standalone="no"?>
<!-- Created with Inkscape (http://www.inkscape.org/) -->

<svg
   width="181.05656mm"
   height="24.97698mm"
   viewBox="0 0 181.05656 24.97698"
   version="1.1"
   id="svg1"
   xmlns:xlink="http://www.w3.org/1999/xlink"
   xmlns="http://www.w3.org/2000/svg"
   xmlns:svg="http://www.w3.org/2000/svg">
  <defs
     id="defs1">
    <linearGradient
       id="linearGradient1">
      <stop
         style="stop-color:#ffc16c;stop-opacity:1;"
         offset="0"
         id="stop1" />
      <stop
         style="stop-color:#d0ad53;stop-opacity:1;"
         offset="1"
         id="stop2" />
    </linearGradient>
    <linearGradient
       xlink:href="#linearGradient1"
       id="linearGradient2"
       x1="21.042332"
       y1="141.81989"
       x2="25.394531"
       y2="177.26572"
       gradientUnits="userSpaceOnUse"
       gradientTransform="matrix(1.08417,0,0,1.08417,-0.45135615,-14.434394)" />
  </defs>
  <g
     id="layer1"
     transform="translate(-5.3624379,-146.51405)">
    <g
       id="g2">
      <path
         id="path9"
         d="m 43.548188,160.79878 c -0.354745,-0.74259 -0.85959,-1.38038 -1.513317,-1.91225 -0.654137,-0.53237 -1.452513,-0.97559 -2.394532,-1.33056 -0.942817,-0.35459 -1.990282,-0.68706 -3.142803,-0.99775 -0.887262,-0.2214 -1.668862,-0.43228 -2.345027,-0.63216 -0.676554,-0.19914 -1.236147,-0.4208 -1.679581,-0.66502 -0.443634,-0.24363 -0.781406,-0.52645 -1.01434,-0.84809 -0.232925,-0.32118 -0.34908,-0.72583 -0.34908,-1.21385 0,-0.84247 0.310094,-1.49662 0.931103,-1.96226 0.620393,-0.46584 1.56321,-0.69863 2.827042,-0.69863 0.70929,0 1.407862,0.0884 2.095138,0.26609 0.687266,0.17797 1.324835,0.3942 1.91251,0.6487 0.587061,0.25514 1.086052,0.51558 1.496555,0.78157 0.4103,0.26606 0.692914,0.47705 0.848273,0.63193 l 2.028876,-3.72502 c -1.042821,-0.70951 -2.261593,-1.32484 -3.658562,-1.84584 -1.39695,-0.52082 -2.926841,-0.78159 -4.589668,-0.78159 -1.197557,0 -2.317339,0.16107 -3.359356,0.48225 -1.042212,0.32156 -1.956746,0.79308 -2.743816,1.41354 -0.787267,0.62092 -1.402414,1.39672 -1.845841,2.32824 -0.443632,0.93105 -0.665249,1.9955 -0.665249,3.19236 0,0.9096 0.138385,1.6912 0.415751,2.34517 0.277167,0.65433 0.692925,1.23049 1.247264,1.72927 0.554136,0.49895 1.247256,0.93124 2.078778,1.29716 0.831498,0.36582 1.812506,0.70423 2.943409,1.01434 0.931301,0.26605 1.773514,0.5103 2.527647,0.73168 0.753528,0.222 1.396959,0.46567 1.92888,0.73173 0.53211,0.26612 0.942219,0.57679 1.230699,0.93129 0.287871,0.35491 0.432313,0.78735 0.432313,1.29718 0,1.61878 -1.26383,2.42783 -3.791479,2.42783 -0.909288,0 -1.795954,-0.1109 -2.660584,-0.33278 -0.864842,-0.22114 -1.641201,-0.51831 -2.361606,-0.81466 -6.411458,-2.63851 -4.463388,-8.30218 -5.525207,-11.40774 -0.488883,-1.42994 -1.219781,-2.67742 -2.195329,-3.74171 -0.975956,-1.0642 -2.189682,-1.90677 -3.641797,-2.52779 -1.452505,-0.62022 -3.142795,-0.93108 -5.071876,-0.93108 H 5.3624377 v 23.61372 h 8.5809383 c 1.773522,0 3.375727,-0.28258 4.805821,-0.84803 1.430095,-0.56544 3.215126,-2.0087 4.235115,-3.03956 -1.741601,-1.45941 -2.27917,-3.59297 -2.212306,-4.66024 0,0 -0.861404,1.37779 -1.623827,2.27863 -0.589683,0.6967 -1.319176,1.24722 -2.194927,1.64625 -0.876148,0.39893 -1.879177,0.59869 -3.009876,0.59869 H 9.9522947 V 150.7047 h 3.9910813 c 1.108273,0 2.100592,0.18853 2.976537,0.56524 0.875558,0.37741 1.777367,0.88705 2.421803,1.53153 1.632917,1.63293 2.118377,3.41993 2.296351,7.24617 0.30626,6.58283 6.711055,9.182 8.440335,9.71427 1.729275,0.53214 3.480573,0.79828 5.25491,0.79828 1.152723,0 2.255736,-0.12738 3.309267,-0.38249 1.052716,-0.25476 1.984016,-0.65961 2.793712,-1.21393 0.809087,-0.55398 1.451911,-1.28066 1.928869,-2.17835 0.47677,-0.89813 0.715157,-1.97906 0.715157,-3.24284 0,-1.08603 -0.177581,-2.00078 -0.532129,-2.7438"
         style="fill:url(#linearGradient2);fill-opacity:1;fill-rule:nonzero;stroke:none;stroke-width:0.202024" />
      <text
         xml:space="preserve"
         style="font-style:normal;font-variant:normal;font-weight:normal;font-stretch:normal;font-size:21.4184px;font-family:sans-serif;-inkscape-font-specification:sans-serif;writing-mode:lr-tb;direction:ltr;fill:#000000;stroke-width:0.286853"
         x="46.592842"
         y="167.06721"
         id="text1"><tspan
           id="tspan1"
           style="font-style:normal;font-variant:normal;font-weight:normal;font-stretch:normal;font-size:21.4184px;font-family:sans-serif;-inkscape-font-specification:sans-serif;fill:#000000;stroke-width:0.286853"
           x="46.592842"
           y="167.06721">DigiSolutions</tspan></text>
    </g>
  </g>
</svg>
